<svg viewBox="0 0 330 200" xmlns="http://www.w3.org/2000/svg"><g><g><g><g><g><line x1="50" y1="177" x2="45" y2="177" style="visibility: inherit;" fill="rgb(0, 0, 0)" stroke="rgb(204, 204, 204)" stroke-width="1px"></line><line x1="50" y1="154.875" x2="45" y2="154.875" style="visibility: inherit;" fill="rgb(0, 0, 0)" stroke="rgb(204, 204, 204)" stroke-width="1px"></line><line x1="50" y1="132.75" x2="45" y2="132.75" style="visibility: inherit;" fill="rgb(0, 0, 0)" stroke="rgb(204, 204, 204)" stroke-width="1px"></line><line x1="50" y1="110.625" x2="45" y2="110.625" style="visibility: inherit;" fill="rgb(0, 0, 0)" stroke="rgb(204, 204, 204)" stroke-width="1px"></line><line x1="50" y1="88.5" x2="45" y2="88.5" style="visibility: inherit;" fill="rgb(0, 0, 0)" stroke="rgb(204, 204, 204)" stroke-width="1px"></line><line x1="50" y1="66.37500000000001" x2="45" y2="66.37500000000001" style="visibility: inherit;" fill="rgb(0, 0, 0)" stroke="rgb(204, 204, 204)" stroke-width="1px"></line><line x1="50" y1="44.24999999999998" x2="45" y2="44.24999999999998" style="visibility: inherit;" fill="rgb(0, 0, 0)" stroke="rgb(204, 204, 204)" stroke-width="1px"></line><line x1="50" y1="22.12500000000002" x2="45" y2="22.12500000000002" style="visibility: inherit;" fill="rgb(0, 0, 0)" stroke="rgb(204, 204, 204)" stroke-width="1px"></line><line x1="50" y1="0" x2="45" y2="0" style="visibility: inherit;" fill="rgb(0, 0, 0)" stroke="rgb(204, 204, 204)" stroke-width="1px"></line></g><g transform="translate(40, 0)"><text x="0" y="177" dx="0em" dy="0.3em" style="text-anchor: end; visibility: hidden; font-family: Roboto, sans-serif; font-size: 12px; font-weight: 200;" fill="rgb(255, 255, 255)" stroke="none" stroke-width="1px">0.1</text><text x="0" y="154.875" dx="0em" dy="0.3em" style="text-anchor: end; visibility: inherit; font-family: Roboto, sans-serif; font-size: 12px; font-weight: 200;" fill="rgb(255, 255, 255)" stroke="none" stroke-width="1px">0.15</text><text x="0" y="132.75" dx="0em" dy="0.3em" style="text-anchor: end; visibility: hidden; font-family: Roboto, sans-serif; font-size: 12px; font-weight: 200;" fill="rgb(255, 255, 255)" stroke="none" stroke-width="1px">0.2</text><text x="0" y="110.625" dx="0em" dy="0.3em" style="text-anchor: end; visibility: inherit; font-family: Roboto, sans-serif; font-size: 12px; font-weight: 200;" fill="rgb(255, 255, 255)" stroke="none" stroke-width="1px">0.25</text><text x="0" y="88.5" dx="0em" dy="0.3em" style="text-anchor: end; visibility: hidden; font-family: Roboto, sans-serif; font-size: 12px; font-weight: 200;" fill="rgb(255, 255, 255)" stroke="none" stroke-width="1px">0.3</text><text x="0" y="66.37500000000001" dx="0em" dy="0.3em" style="text-anchor: end; visibility: inherit; font-family: Roboto, sans-serif; font-size: 12px; font-weight: 200;" fill="rgb(255, 255, 255)" stroke="none" stroke-width="1px">0.35</text><text x="0" y="44.24999999999998" dx="0em" dy="0.3em" style="text-anchor: end; visibility: hidden; font-family: Roboto, sans-serif; font-size: 12px; font-weight: 200;" fill="rgb(255, 255, 255)" stroke="none" stroke-width="1px">0.4</text><text x="0" y="22.12500000000002" dx="0em" dy="0.3em" style="text-anchor: end; visibility: inherit; font-family: Roboto, sans-serif; font-size: 12px; font-weight: 200;" fill="rgb(255, 255, 255)" stroke="none" stroke-width="1px">0.45</text><text x="0" y="0" dx="0em" dy="0.3em" style="text-anchor: end; visibility: hidden; font-family: Roboto, sans-serif; font-size: 12px; font-weight: 200;" fill="rgb(255, 255, 255)" stroke="none" stroke-width="1px">0.5</text></g><line x1="50" y1="0" x2="50" y2="177" fill="rgb(0, 0, 0)" stroke="rgb(204, 204, 204)" stroke-width="1px"></line></g></g><g transform="translate(50, 0)" clip-path="url(#clip_0)"><clipPath id="clip_0"><rect width="280" height="177"></rect></clipPath><g><g><g><line x1="0" y1="0" x2="0" y2="177" fill="rgb(0, 0, 0)" stroke="rgb(189, 189, 189)" stroke-width="1px" opacity="0.25"></line><line x1="25.454545454545457" y1="0" x2="25.454545454545457" y2="177" fill="rgb(0, 0, 0)" stroke="rgb(189, 189, 189)" stroke-width="1px" opacity="0.25"></line><line x1="50.909090909090914" y1="0" x2="50.909090909090914" y2="177" fill="rgb(0, 0, 0)" stroke="rgb(189, 189, 189)" stroke-width="1px" opacity="0.25"></line><line x1="76.36363636363636" y1="0" x2="76.36363636363636" y2="177" fill="rgb(0, 0, 0)" stroke="rgb(189, 189, 189)" stroke-width="1px" opacity="0.25"></line><line x1="101.81818181818183" y1="0" x2="101.81818181818183" y2="177" fill="rgb(0, 0, 0)" stroke="rgb(189, 189, 189)" stroke-width="1px" opacity="0.25"></line><line x1="127.27272727272727" y1="0" x2="127.27272727272727" y2="177" fill="rgb(0, 0, 0)" stroke="rgb(189, 189, 189)" stroke-width="1px" opacity="0.25"></line><line x1="152.72727272727272" y1="0" x2="152.72727272727272" y2="177" fill="rgb(0, 0, 0)" stroke="rgb(189, 189, 189)" stroke-width="1px" opacity="0.25"></line><line x1="178.1818181818182" y1="0" x2="178.1818181818182" y2="177" fill="rgb(0, 0, 0)" stroke="rgb(189, 189, 189)" stroke-width="1px" opacity="0.25"></line><line x1="203.63636363636365" y1="0" x2="203.63636363636365" y2="177" fill="rgb(0, 0, 0)" stroke="rgb(189, 189, 189)" stroke-width="1px" opacity="0.25"></line><line x1="229.0909090909091" y1="0" x2="229.0909090909091" y2="177" fill="rgb(0, 0, 0)" stroke="rgb(189, 189, 189)" stroke-width="1px" opacity="0.25"></line><line x1="254.54545454545453" y1="0" x2="254.54545454545453" y2="177" fill="rgb(0, 0, 0)" stroke="rgb(189, 189, 189)" stroke-width="1px" opacity="0.25"></line><line x1="280" y1="0" x2="280" y2="177" fill="rgb(0, 0, 0)" stroke="rgb(189, 189, 189)" stroke-width="1px" opacity="0.25"></line></g><g><line x1="0" y1="177" x2="280" y2="177" fill="rgb(0, 0, 0)" stroke="rgb(189, 189, 189)" stroke-width="1px" opacity="0.25"></line><line x1="0" y1="154.875" x2="280" y2="154.875" fill="rgb(0, 0, 0)" stroke="rgb(189, 189, 189)" stroke-width="1px" opacity="0.25"></line><line x1="0" y1="132.75" x2="280" y2="132.75" fill="rgb(0, 0, 0)" stroke="rgb(189, 189, 189)" stroke-width="1px" opacity="0.25"></line><line x1="0" y1="110.625" x2="280" y2="110.625" fill="rgb(0, 0, 0)" stroke="rgb(189, 189, 189)" stroke-width="1px" opacity="0.25"></line><line x1="0" y1="88.5" x2="280" y2="88.5" fill="rgb(0, 0, 0)" stroke="rgb(189, 189, 189)" stroke-width="1px" opacity="0.25"></line><line x1="0" y1="66.37500000000001" x2="280" y2="66.37500000000001" fill="rgb(0, 0, 0)" stroke="rgb(189, 189, 189)" stroke-width="1px" opacity="0.25"></line><line x1="0" y1="44.24999999999998" x2="280" y2="44.24999999999998" fill="rgb(0, 0, 0)" stroke="rgb(189, 189, 189)" stroke-width="1px" opacity="0.25"></line><line x1="0" y1="22.12500000000002" x2="280" y2="22.12500000000002" fill="rgb(0, 0, 0)" stroke="rgb(189, 189, 189)" stroke-width="1px" opacity="0.25"></line><line x1="0" y1="0" x2="280" y2="0" fill="rgb(0, 0, 0)" stroke="rgb(189, 189, 189)" stroke-width="1px" opacity="0.25"></line></g></g></g><g><g><line x1="0" y1="221.25" x2="280" y2="221.25" fill="rgb(0, 0, 0)" stroke="rgb(153, 153, 153)" stroke-width="1.5px"></line></g></g><g><g><line x1="25.454545454545457" y1="0" x2="25.454545454545457" y2="177" fill="rgb(0, 0, 0)" stroke="rgb(153, 153, 153)" stroke-width="1.5px"></line></g></g><g><g><g><g><g><path stroke="rgb(51, 187, 238)" stroke-width="2px" d="M25.454545454545457,15.149172395467758L30.545454545454543,35.20901643417099L35.63636363636363,51.7666307870025L40.72727272727273,62.31008767046035L45.81818181818182,78.55300017536236L50.909090909090914,90.76146299195246L56,101.02453371403381L61.090909090909086,111.55436636609534L66.18181818181819,120.04703655819445L71.27272727272727,127.63102756271253L76.36363636363636,132.53483124653553L81.45454545454545,137.17243432243367L86.54545454545455,140.6716465086866L91.63636363636364,140.48767098738742L96.72727272727273,143.85064520874212L101.81818181818183,146.01788798238195L106.9090909090909,146.78995042682646L112,147.4693302397035L117.09090909090908,150.02971822637443L122.18181818181817,152.25263581287126L127.27272727272727,152.03802341260476L132.36363636363637,150.92733835496205L137.45454545454547,151.82008310557492L142.54545454545453,153.48528156391527L147.63636363636363,153.20016122159683L152.72727272727272,154.24472836695713L157.8181818181818,155.58186796409692L162.9090909090909,156.0300973760532L168,156.33954758604054L173.0909090909091,156.3666566214208L178.1818181818182,157.19065780753698L183.27272727272728,158.37214271291955L188.36363636363637,159.03287439345405L193.45454545454547,158.7070215561213L198.54545454545456,159.42836272904148L203.63636363636365,159.98186897438092L208.72727272727275,160.2359360813111L213.8181818181818,160.56678098115313L218.9090909090909,161.11521284533055L224,161.19638015461499L229.0909090909091,161.10658963961552L234.18181818181816,160.6593655022554L239.27272727272725,158.61973427826644L244.36363636363635,158.41925650356288" style="fill: none;" fill="none"></path></g><g><path stroke="rgb(0, 119, 187)" stroke-width="2px" d="M35.63636363636363,-21.0817445117185L40.72727272727273,2.1685576644838873L45.81818181818182,20.68503531118043L50.909090909090914,35.70042106758209L56,43.91773792960625L61.090909090909086,53.395131771529144L66.18181818181819,59.413131718891165L71.27272727272727,66.02282315349993L76.36363636363636,71.06263222708664L81.45454545454545,73.71188397882332L86.54545454545455,79.376738385945L91.63636363636364,85.28444324353592L96.72727272727273,93.13198049161905L101.81818181818183,98.76059600612479L106.9090909090909,104.25228413284462L112,108.09785332391644L117.09090909090908,113.45247214542144L122.18181818181817,116.30435264949351L127.27272727272727,118.81722292686193L132.36363636363637,120.28730938145556L137.45454545454547,122.62692751868768L142.54545454545453,124.41813161560906L147.63636363636363,123.80342933019452L152.72727272727272,126.23899881621989L157.8181818181818,128.16798002901925L162.9090909090909,130.11433713071784L168,130.77898950743773L173.0909090909091,130.52152692054827L178.1818181818182,132.4297154183938L183.27272727272728,132.13175896045124L188.36363636363637,134.98982712893445L193.45454545454547,137.34306354675272L198.54545454545456,138.35719701505914L203.63636363636365,138.17988274541986L208.72727272727275,139.35292151675142L213.8181818181818,139.5956115128403L218.9090909090909,141.2569353817749L224,139.2383248013994L229.0909090909091,138.70712644024246L234.18181818181816,138.8043714931078L239.27272727272725,139.5867728242631L244.36363636363635,138.61637124230964" style="fill: none;" fill="none"></path></g><g><path stroke="rgb(187, 187, 187)" stroke-width="2px" d="M25.454545454545457,27.389176189899445L30.545454545454543,30.465626581148648L35.63636363636363,38.90547344171238L40.72727272727273,49.331898471145024L45.81818181818182,56.772569054952385L50.909090909090914,66.03132449942198L56,74.81810124615924L61.090909090909086,84.13381507421062L66.18181818181819,89.37191961963609L71.27272727272727,95.60390281161204L76.36363636363636,100.4239290829185L81.45454545454545,102.52187662934122L86.54545454545455,106.08147887650739L91.63636363636364,109.7240603953847L96.72727272727273,112.96649015906273L101.81818181818183,117.00869139203193L106.9090909090909,120.79512517686929L112,123.46147627391493L117.09090909090908,124.80162079467885L122.18181818181817,127.4163478779216L127.27272727272727,130.93874184416072L132.36363636363637,133.68506185699852L137.45454545454547,134.87868924563813L142.54545454545453,136.20008917573193L147.63636363636363,139.17179333785094L152.72727272727272,140.20397547058624L157.8181818181818,141.1041670907874L162.9090909090909,142.37166178123547L168,143.73078318757686L173.0909090909091,145.3432158144859L178.1818181818182,148.7084301155871L183.27272727272728,149.791743836262L188.36363636363637,151.37642694328258L193.45454545454547,152.2341824788636L198.54545454545456,156.4689451640955L203.63636363636365,159.15402731622416L208.72727272727275,161.40094612766478L213.8181818181818,163.10720730315506L218.9090909090909,163.69074541504406L224,165.10510128168622L229.0909090909091,164.67999277775192L234.18181818181816,164.42303945882185L239.27272727272725,164.41357911042772L244.36363636363635,165.17963480174788L249.45454545454544,164.8737028283455" style="fill: none;" fill="none"></path></g><g><path stroke="rgb(238, 51, 119)" stroke-width="2px" d="M25.454545454545457,12.525540143251419L30.545454545454543,16.465038291432617L35.63636363636363,22.12074676939748L40.72727272727273,28.175476886061855L45.81818181818182,33.258807118920586L50.909090909090914,37.738223015318496L56,41.71489075957485L61.090909090909086,44.76001168818809L66.18181818181819,47.45150669235886L71.27272727272727,49.77772224827255L76.36363636363636,52.242121123296954L81.45454545454545,54.91829098221068L86.54545454545455,59.42354901964747L91.63636363636364,63.616245318836754L96.72727272727273,65.88821917811636L101.81818181818183,69.57733878398784L106.9090909090909,73.12168985794263L112,77.89054127503806L117.09090909090908,82.61278747412321L122.18181818181817,85.22191721687602L127.27272727272727,92.01410723488907L132.36363636363637,98.09068438721775L137.45454545454547,102.40162683248991L142.54545454545453,104.76284043768733L147.63636363636363,107.52600216301703L152.72727272727272,109.61219879823476L157.8181818181818,111.66289702791808L162.9090909090909,113.41014211633419L168,114.04612741616133L173.0909090909091,116.19381082774953L178.1818181818182,118.5561028264284L183.27272727272728,121.16912764343482L188.36363636363637,122.55442581155567L193.45454545454547,125.8145187220635L198.54545454545456,128.71311074780417L203.63636363636365,126.84030547507928L208.72727272727275,127.74368662612729L213.8181818181818,130.49796650327278L218.9090909090909,132.2192860985104L224,133.97802770439532L229.0909090909091,137.0020439619549L234.18181818181816,138.38000110776122L239.27272727272725,138.52064540594125L244.36363636363635,137.73486974643885L249.45454545454544,136.90149655198002L254.54545454545453,137.28316400521396" style="fill: none;" fill="none"></path></g></g></g></g><g opacity="0.2"><g><g><g><path stroke="rgb(51, 187, 238)" stroke-width="2px" d="M25.454545454545457,15.149172395467758L30.545454545454543,48.24791505932808L35.63636363636363,69.5246721804142L40.72727272727273,76.51344202458858L45.81818181818182,103.33369508385658L50.909090909090914,110.80361187458038L56,118.6470390111208L61.090909090909086,130.15111941844225L66.18181818181819,135.31656850129366L71.27272727272727,141.4238642156124L76.36363636363636,141.51928916573524L81.45454545454545,145.70975795388222L86.54545454545455,147.13321968913078L91.63636363636364,140.14726538211107L96.72727272727273,150.08115962147713L101.81818181818183,150.03648027777672L106.9090909090909,148.22232484817505L112,148.7302029132843L117.09090909090908,154.78268466889858L122.18181818181817,156.3797602057457L127.27272727272727,151.63952976465225L132.36363636363637,148.86488053947687L137.45454545454547,153.477910682559L142.54545454545453,156.5776390582323L147.63636363636363,152.67066914588213L152.72727272727272,156.18459798395634L157.8181818181818,158.0650932714343L162.9090909090909,156.8625160306692L168,156.91423751413822L173.0909090909091,156.4170017838478L178.1818181818182,158.72094199061394L183.27272727272728,160.56632548570633L188.36363636363637,160.2599462494254L193.45454545454547,158.1018666923046L198.54545454545456,160.7679957523942L203.63636363636365,161.00980885326862L208.72727272727275,160.70777490735054L213.8181818181818,161.18120715022087L218.9090909090909,162.1337290853262L224,161.347119435668L229.0909090909091,160.93983583152294L234.18181818181816,159.82880640774965L239.27272727272725,154.83184777200222L244.36363636363635,158.04694063961506" style="fill: none;" fill="none"></path></g><g><path stroke="rgb(0, 119, 187)" stroke-width="2px" d="M25.454545454545457,-169.81666401028633L30.545454545454543,1.7125587165355682L35.63636363636363,26.942461878061295L40.72727272727273,33.48962098360062L45.81818181818182,48.93435224890709L50.909090909090914,60.3505839407444L56,58.02752181887627L61.090909090909086,70.13317108154297L66.18181818181819,70.23329079151154L71.27272727272727,78.04372273385525L76.36363636363636,80.29627114534378L81.45454545454545,78.58886875212193L86.54545454545455,89.8373419046402L91.63636363636364,96.21533140540123L96.72727272727273,107.67095424234867L101.81818181818183,109.19741056859493L106.9090909090909,114.4407781586051L112,115.23491129279137L117.09090909090908,123.39249830693007L122.18181818181817,121.59922532737255L127.27272727272727,123.48313618451357L132.36363636363637,123.01714830100536L137.45454545454547,126.97159990668297L142.54545454545453,127.74448793381453L147.63636363636363,122.66187630593777L152.72727272727272,130.76210416853428L157.8181818181818,131.7503247410059L162.9090909090909,133.72896820306778L168,132.01333679258823L173.0909090909091,130.04338391125202L178.1818181818182,135.97348541021347L183.27272727272728,131.57841213047504L188.36363636363637,140.29766254127026L193.45454545454547,141.7133568227291L198.54545454545456,140.24058692157269L203.63636363636365,137.85058490931988L208.72727272727275,141.53142169117928L213.8181818181818,140.04632145166397L218.9090909090909,144.34225089848042L224,135.48947677016258L229.0909090909091,137.7206152305007L234.18181818181816,138.98496944457293L239.27272727272725,141.03980384767056L244.36363636363635,136.8141968920827" style="fill: none;" fill="none"></path></g><g><path stroke="rgb(187, 187, 187)" stroke-width="2px" d="M25.454545454545457,27.389176189899445L30.545454545454543,32.46531933546066L35.63636363636363,47.95720919966698L40.72727272727273,63.37759628891945L45.81818181818182,68.1242886185646L50.909090909090914,81.23105585575104L56,89.90569286048412L61.090909090909086,100.58631107211113L66.18181818181819,98.78985330462456L71.27272727272727,106.93787276744843L76.36363636363636,109.25489500164986L81.45454545454545,106.3839702308178L86.54545454545455,112.65456710010767L91.63636363636364,116.46384380757809L96.72727272727273,118.97367428988218L101.81818181818183,124.5039101690054L106.9090909090909,127.81993377953768L112,128.4100031107664L117.09090909090908,127.28939294815063L122.18181818181817,132.27091558277607L127.27272727272727,137.47914500534534L132.36363636363637,138.78476958721876L137.45454545454547,137.09525607526302L142.54545454545453,138.65399546921253L147.63636363636363,144.69049394130707L152.72727272727272,142.12084483355284L157.8181818181818,142.7759286761284L162.9090909090909,144.72555957734585L168,146.25485122203827L173.0909090909091,148.33772230893373L178.1818181818182,154.95809856802225L183.27272727272728,151.8036089837551L188.36363636363637,154.3194068223238L193.45454545454547,153.82715597748756L198.54545454545456,164.3335010111332L203.63636363636365,164.14060704410076L208.72727272727275,165.57379458099604L213.8181818181818,166.27597767859697L218.9090909090909,164.77445896714926L224,167.73176204413176L229.0909090909091,163.8905055820942L234.18181818181816,163.9458404481411L239.27272727272725,164.39600989222527L244.36363636363635,166.60230964422226L249.45454545454544,164.3055434525013" style="fill: none;" fill="none"></path></g><g><path stroke="rgb(238, 51, 119)" stroke-width="2px" d="M25.454545454545457,12.525540143251419L30.545454545454543,19.025712087750435L35.63636363636363,28.18649411201477L40.72727272727273,36.33195519447327L45.81818181818182,41.014094576239586L50.909090909090914,45.09190231561661L56,48.54314424097538L61.090909090909086,50.13800427317619L66.18181818181819,52.290723100304604L71.27272727272727,54.008359014987946L76.36363636363636,56.757246404886246L81.45454545454545,59.84482906758785L86.54545454545455,67.74286575615406L91.63636363636364,71.37389324605465L96.72727272727273,70.09745925664902L101.81818181818183,76.41785882413387L106.9090909090909,79.69737276434898L112,86.7411345988512L117.09090909090908,91.37891113758087L122.18181818181817,90.0660927593708L127.27272727272727,104.6258881688118L132.36363636363637,109.37442675232887L137.45454545454547,110.40704973042011L142.54545454545453,109.14773315191269L147.63636363636363,112.65742219984531L152.72727272727272,113.48648250102997L157.8181818181818,115.47128453850746L162.9090909090909,116.65499702095985L168,115.22723615169525L173.0909090909091,120.18235076218843L178.1818181818182,122.94320583343506L183.27272727272728,126.02188032120466L188.36363636363637,125.12711975723505L193.45454545454547,131.86897292733192L198.54545454545456,134.0962078794837L203.63636363636365,123.3622395247221L208.72727272727275,129.4213941693306L213.8181818181818,135.61305709183216L218.9090909090909,135.41602224111557L224,137.24426195025444L229.0909090909091,142.61807397007942L234.18181818181816,140.93906432390213L239.27272727272725,138.781841956079L244.36363636363635,136.27557210624218L249.45454545454544,135.35380348563194L254.54545454545453,137.99197498708963" style="fill: none;" fill="none"></path></g></g></g></g></g></g><g transform="translate(50, 177)" clip-path="url(#clip_1)"><clipPath id="clip_1"><rect width="280" height="23"></rect></clipPath><g><g><line x1="0" y1="0" x2="0" y2="5" style="visibility: inherit;" fill="rgb(0, 0, 0)" stroke="rgb(204, 204, 204)" stroke-width="1px"></line><line x1="25.454545454545457" y1="0" x2="25.454545454545457" y2="5" style="visibility: inherit;" fill="rgb(0, 0, 0)" stroke="rgb(204, 204, 204)" stroke-width="1px"></line><line x1="50.909090909090914" y1="0" x2="50.909090909090914" y2="5" style="visibility: inherit;" fill="rgb(0, 0, 0)" stroke="rgb(204, 204, 204)" stroke-width="1px"></line><line x1="76.36363636363636" y1="0" x2="76.36363636363636" y2="5" style="visibility: inherit;" fill="rgb(0, 0, 0)" stroke="rgb(204, 204, 204)" stroke-width="1px"></line><line x1="101.81818181818183" y1="0" x2="101.81818181818183" y2="5" style="visibility: inherit;" fill="rgb(0, 0, 0)" stroke="rgb(204, 204, 204)" stroke-width="1px"></line><line x1="127.27272727272727" y1="0" x2="127.27272727272727" y2="5" style="visibility: inherit;" fill="rgb(0, 0, 0)" stroke="rgb(204, 204, 204)" stroke-width="1px"></line><line x1="152.72727272727272" y1="0" x2="152.72727272727272" y2="5" style="visibility: inherit;" fill="rgb(0, 0, 0)" stroke="rgb(204, 204, 204)" stroke-width="1px"></line><line x1="178.1818181818182" y1="0" x2="178.1818181818182" y2="5" style="visibility: inherit;" fill="rgb(0, 0, 0)" stroke="rgb(204, 204, 204)" stroke-width="1px"></line><line x1="203.63636363636365" y1="0" x2="203.63636363636365" y2="5" style="visibility: inherit;" fill="rgb(0, 0, 0)" stroke="rgb(204, 204, 204)" stroke-width="1px"></line><line x1="229.0909090909091" y1="0" x2="229.0909090909091" y2="5" style="visibility: inherit;" fill="rgb(0, 0, 0)" stroke="rgb(204, 204, 204)" stroke-width="1px"></line><line x1="254.54545454545453" y1="0" x2="254.54545454545453" y2="5" style="visibility: inherit;" fill="rgb(0, 0, 0)" stroke="rgb(204, 204, 204)" stroke-width="1px"></line><line x1="280" y1="0" x2="280" y2="5" style="visibility: inherit;" fill="rgb(0, 0, 0)" stroke="rgb(204, 204, 204)" stroke-width="1px"></line></g><g transform="translate(0, 8)"><text x="0" y="0" dx="0em" dy="0.95em" style="text-anchor: middle; visibility: hidden; font-family: Roboto, sans-serif; font-size: 12px; font-weight: 200;" fill="rgb(255, 255, 255)" stroke="none" stroke-width="1px">-5</text><text x="25.454545454545457" y="0" dx="0em" dy="0.95em" style="text-anchor: middle; visibility: inherit; font-family: Roboto, sans-serif; font-size: 12px; font-weight: 200;" fill="rgb(255, 255, 255)" stroke="none" stroke-width="1px">0</text><text x="50.909090909090914" y="0" dx="0em" dy="0.95em" style="text-anchor: middle; visibility: inherit; font-family: Roboto, sans-serif; font-size: 12px; font-weight: 200;" fill="rgb(255, 255, 255)" stroke="none" stroke-width="1px">5</text><text x="76.36363636363636" y="0" dx="0em" dy="0.95em" style="text-anchor: middle; visibility: inherit; font-family: Roboto, sans-serif; font-size: 12px; font-weight: 200;" fill="rgb(255, 255, 255)" stroke="none" stroke-width="1px">10</text><text x="101.81818181818183" y="0" dx="0em" dy="0.95em" style="text-anchor: middle; visibility: inherit; font-family: Roboto, sans-serif; font-size: 12px; font-weight: 200;" fill="rgb(255, 255, 255)" stroke="none" stroke-width="1px">15</text><text x="127.27272727272727" y="0" dx="0em" dy="0.95em" style="text-anchor: middle; visibility: inherit; font-family: Roboto, sans-serif; font-size: 12px; font-weight: 200;" fill="rgb(255, 255, 255)" stroke="none" stroke-width="1px">20</text><text x="152.72727272727272" y="0" dx="0em" dy="0.95em" style="text-anchor: middle; visibility: inherit; font-family: Roboto, sans-serif; font-size: 12px; font-weight: 200;" fill="rgb(255, 255, 255)" stroke="none" stroke-width="1px">25</text><text x="178.1818181818182" y="0" dx="0em" dy="0.95em" style="text-anchor: middle; visibility: inherit; font-family: Roboto, sans-serif; font-size: 12px; font-weight: 200;" fill="rgb(255, 255, 255)" stroke="none" stroke-width="1px">30</text><text x="203.63636363636365" y="0" dx="0em" dy="0.95em" style="text-anchor: middle; visibility: inherit; font-family: Roboto, sans-serif; font-size: 12px; font-weight: 200;" fill="rgb(255, 255, 255)" stroke="none" stroke-width="1px">35</text><text x="229.0909090909091" y="0" dx="0em" dy="0.95em" style="text-anchor: middle; visibility: inherit; font-family: Roboto, sans-serif; font-size: 12px; font-weight: 200;" fill="rgb(255, 255, 255)" stroke="none" stroke-width="1px">40</text><text x="254.54545454545453" y="0" dx="0em" dy="0.95em" style="text-anchor: middle; visibility: inherit; font-family: Roboto, sans-serif; font-size: 12px; font-weight: 200;" fill="rgb(255, 255, 255)" stroke="none" stroke-width="1px">45</text><text x="280" y="0" dx="0em" dy="0.95em" style="text-anchor: middle; visibility: hidden; font-family: Roboto, sans-serif; font-size: 12px; font-weight: 200;" fill="rgb(255, 255, 255)" stroke="none" stroke-width="1px">50</text></g><line x1="0" y1="0" x2="280" y2="0" fill="rgb(0, 0, 0)" stroke="rgb(204, 204, 204)" stroke-width="1px"></line></g></g></g></g></svg>